<svg width="553" height="176" viewBox="0 0 553 176" fill="none" xmlns="http://www.w3.org/2000/svg">
<g clip-path="url(#clip0_282_1230)">
<path d="M147.065 99.0117C145.491 76.474 126.741 59.1826 104.545 59.1826H74.4986C72.7821 59.1831 71.166 60.0057 70.1357 61.4033C69.5921 62.122 69.0485 62.8406 68.4978 63.5593C68.4061 63.6887 68.3072 63.818 68.2013 63.9402H68.166C66.6009 65.7633 63.8804 65.9496 62.0895 64.3563C61.7631 64.0659 61.4816 63.7269 61.2546 63.3509V63.3006C61.191 63.1928 61.1345 63.0778 61.0781 62.97L57.3505 55.8694L48.7236 39.9651C49.3307 39.5258 49.8307 38.9505 50.1849 38.2834C50.5377 37.5895 50.7285 36.8222 50.7426 36.0411C50.7495 33.3997 48.7486 31.2028 46.1609 31.0103C45.6869 30.9787 45.2109 31.0199 44.7489 31.1325L44.7136 31.0103V31.1541C43.6707 31.4208 42.7428 32.0294 42.0733 32.8861C40.3915 35.0135 40.7223 38.1261 42.8121 39.8381C43.3693 40.2946 44.0186 40.6201 44.7136 40.7916V105.322C44.7796 127.21 62.1958 144.937 83.6974 145H105.025C128.364 144.934 147.231 125.62 147.166 101.86C147.164 100.908 147.13 99.9551 147.065 99.0046V99.0117ZM135.77 102.095C135.719 117.643 123.348 130.234 108.075 130.281H83.295C68.0225 130.234 55.6533 117.642 55.6068 102.095C55.6494 86.5447 68.0198 73.9485 83.295 73.9011H108.075C123.351 73.9485 135.723 86.5435 135.77 102.095Z" fill="url(#paint0_linear_282_1230)"/>
<path d="M107.653 109.067C111.435 109.067 114.501 105.946 114.501 102.096C114.501 98.2461 111.435 95.125 107.653 95.125C103.871 95.125 100.805 98.2461 100.805 102.096C100.805 105.946 103.871 109.067 107.653 109.067Z" fill="#171656"/>
<path d="M83.7151 109.067C87.4971 109.067 90.563 105.946 90.563 102.096C90.563 98.2461 87.4971 95.125 83.7151 95.125C79.9331 95.125 76.8672 98.2461 76.8672 102.096C76.8672 105.946 79.9331 109.067 83.7151 109.067Z" fill="#171656"/>
<path d="M213.148 106.409C213.148 116.959 205.086 125.504 195.139 125.504C191.822 125.504 188.574 124.539 185.778 122.723C184.794 125.049 182.144 126.122 179.859 125.121C178.21 124.398 177.14 122.747 177.136 120.919V78.1574C177.038 75.627 178.973 73.4945 181.459 73.3943C183.944 73.2941 186.039 75.264 186.138 77.7944C186.142 77.9153 186.142 78.0364 186.138 78.1574V89.8718C188.853 88.201 191.966 87.3187 195.139 87.3205C205.086 87.3205 213.148 95.8656 213.148 106.409ZM204.14 106.409C204.14 100.925 200.109 96.4837 195.139 96.4837C190.169 96.4837 186.138 100.925 186.138 106.409C186.138 111.892 190.169 116.341 195.139 116.341C200.109 116.341 204.14 111.892 204.14 106.409Z" fill="#171656"/>
<path d="M217.648 106.408C217.648 95.8654 225.704 87.3203 235.651 87.3203C245.598 87.3203 253.653 95.8654 253.653 106.408C253.653 116.951 245.591 125.504 235.651 125.504C225.711 125.504 217.648 116.959 217.648 106.408ZM244.652 106.408C244.652 100.925 240.621 96.4835 235.651 96.4835C230.681 96.4835 226.678 100.925 226.678 106.408C226.678 111.892 230.709 116.341 235.679 116.341C240.649 116.341 244.652 111.892 244.652 106.408H244.652Z" fill="#171656"/>
<path d="M285.368 123.291C283.286 124.731 280.826 125.502 278.309 125.504C271.211 125.425 265.512 119.52 265.559 112.295V96.4838H261.909C259.423 96.584 257.329 94.6141 257.23 92.0837C257.132 89.5534 259.067 87.4209 261.552 87.3206C261.671 87.3158 261.79 87.3158 261.909 87.3206H265.566V79.6811C265.664 77.1508 267.759 75.1808 270.245 75.281C272.592 75.3757 274.474 77.2913 274.567 79.6811V87.3206H281.627C284.112 87.4209 286.048 89.5534 285.949 92.0837C285.856 94.4735 283.974 96.3891 281.627 96.4838H274.567V112.295C274.504 114.465 276.181 116.276 278.312 116.341C278.314 116.341 278.315 116.341 278.316 116.341C279.033 116.327 279.733 116.116 280.342 115.73C282.337 114.306 285.089 114.799 286.488 116.83C286.515 116.87 286.542 116.911 286.569 116.952C287.929 119.045 287.396 121.862 285.368 123.291Z" fill="#171656"/>
<path d="M292.211 78.5364C292.211 75.7937 294.395 73.5703 297.089 73.5703C299.783 73.5703 301.967 75.7937 301.967 78.5364C301.967 81.2791 299.783 83.5025 297.089 83.5025C297.087 83.5025 297.084 83.5025 297.082 83.5025C294.392 83.5025 292.211 81.2823 292.211 78.5436C292.211 78.5412 292.211 78.5388 292.211 78.5364ZM292.585 120.938V91.8966C292.684 89.3663 294.778 87.3963 297.264 87.4965C299.611 87.5912 301.493 89.5068 301.586 91.8966V120.917C301.685 123.447 299.75 125.58 297.264 125.68C294.778 125.78 292.684 123.81 292.585 121.28C292.58 121.159 292.58 121.038 292.585 120.917V120.938Z" fill="#171656"/>
<path d="M309.237 120.8C308.611 120.245 308.546 119.278 309.092 118.641C309.603 118.043 310.478 117.942 311.108 118.407C314.087 120.836 318.521 122.281 322.517 122.432C328.32 122.647 333.883 120.333 334.01 115.209C334.158 109.38 329.604 108.647 322.488 107.929C314.017 107.074 308.058 105.55 308.263 97.5295C308.439 90.5152 315.358 87.0583 322.898 87.3314C327.643 87.4987 332.226 89.1331 336.036 92.0172C336.685 92.5411 336.794 93.5016 336.279 94.1625C335.765 94.8233 334.821 94.9343 334.172 94.4104C330.895 91.934 326.955 90.5304 322.877 90.3858C317.017 90.1486 311.376 92.4772 311.242 97.5726C311.094 103.408 315.647 104.134 322.764 104.853C331.278 105.708 337.194 107.239 336.989 115.252C336.812 122.295 329.929 125.673 322.495 125.443C317.843 125.342 312.725 123.632 309.237 120.8Z" fill="#171656"/>
<path d="M343.586 106.408C343.586 95.966 351.627 87.3203 361.793 87.3203C366.387 87.3188 370.804 89.1207 374.126 92.3511C374.692 92.9695 374.659 93.9382 374.051 94.5146C373.498 95.0399 372.647 95.0644 372.065 94.5718C369.301 91.8745 365.622 90.366 361.793 90.3603C353.413 90.3603 346.586 97.5471 346.586 106.394C346.586 115.241 353.413 122.435 361.793 122.435C365.622 122.429 369.301 120.921 372.065 118.223C372.665 117.644 373.614 117.67 374.183 118.281C374.752 118.892 374.727 119.858 374.126 120.437C370.804 123.667 366.387 125.469 361.793 125.468C351.634 125.504 343.586 116.88 343.586 106.408Z" fill="#171656"/>
<path d="M417.922 106.406V123.971C417.979 124.814 417.354 125.545 416.525 125.603C415.696 125.661 414.979 125.024 414.922 124.18C414.917 124.111 414.917 124.04 414.922 123.971V106.406C414.922 97.5521 408.208 90.3725 399.92 90.3725C391.632 90.3725 384.918 97.5592 384.918 106.406V123.971C384.975 124.814 384.349 125.545 383.521 125.603C382.692 125.661 381.975 125.024 381.918 124.18C381.913 124.111 381.913 124.04 381.918 123.971V75.1005C381.861 74.2571 382.486 73.5264 383.315 73.4685C384.143 73.4106 384.861 74.0474 384.918 74.8909C384.923 74.9607 384.923 75.0307 384.918 75.1005V95.8488C388.152 90.5763 393.814 87.357 399.92 87.3181C409.867 87.3181 417.922 95.8632 417.922 106.406Z" fill="#171656"/>
<path d="M424.523 106.408C424.523 95.8654 432.586 87.3203 442.526 87.3203C452.466 87.3203 460.528 95.8654 460.528 106.408C460.528 116.951 452.466 125.504 442.526 125.504C432.586 125.504 424.523 116.959 424.523 106.408ZM457.528 106.408C457.528 97.5543 450.814 90.3747 442.526 90.3747C434.238 90.3747 427.524 97.5615 427.524 106.408C427.524 115.255 434.238 122.449 442.526 122.449C450.814 122.449 457.528 115.27 457.528 106.408Z" fill="#171656"/>
<path d="M466.383 106.408C466.383 95.8654 474.445 87.3203 484.385 87.3203C494.325 87.3203 502.387 95.8654 502.387 106.408C502.387 116.951 494.332 125.504 484.385 125.504C474.438 125.504 466.383 116.959 466.383 106.408ZM499.387 106.408C499.387 97.5543 492.673 90.3747 484.385 90.3747C476.097 90.3747 469.383 97.5615 469.383 106.408C469.383 115.255 476.097 122.449 484.385 122.449C492.673 122.449 499.387 115.27 499.387 106.408Z" fill="#171656"/>
<path d="M508.996 123.971V75.1005C508.939 74.2571 509.564 73.5264 510.393 73.4685C511.222 73.4106 511.939 74.0474 511.996 74.8909C512.001 74.9607 512.001 75.0307 511.996 75.1005V123.971C512.053 124.814 511.427 125.545 510.599 125.603C509.77 125.661 509.053 125.024 508.996 124.18C508.991 124.111 508.991 124.04 508.996 123.971Z" fill="#171656"/>
<path d="M253.833 125.637C252.745 124.506 251 124.373 249.759 125.328C241.463 131.928 229.817 131.928 221.52 125.328C220.28 124.373 218.535 124.506 217.447 125.637C216.245 126.878 216.259 128.875 217.478 130.099C217.57 130.191 217.669 130.278 217.772 130.359C228.29 138.647 242.983 138.647 253.501 130.359C254.863 129.303 255.126 127.323 254.088 125.937C254.009 125.832 253.924 125.731 253.833 125.637Z" fill="url(#paint1_linear_282_1230)"/>
</g>
<defs>
<linearGradient id="paint0_linear_282_1230" x1="41" y1="88" x2="147.167" y2="88" gradientUnits="userSpaceOnUse">
<stop stop-color="#FB7725"/>
<stop offset="1" stop-color="#EA2287"/>
</linearGradient>
<linearGradient id="paint1_linear_282_1230" x1="216.555" y1="130.633" x2="254.722" y2="130.633" gradientUnits="userSpaceOnUse">
<stop stop-color="#FB7725"/>
<stop offset="1" stop-color="#EA2287"/>
</linearGradient>
<clipPath id="clip0_282_1230">
<rect width="471" height="114" fill="white" transform="translate(41 31)"/>
</clipPath>
</defs>
</svg>
